<?xml version="1.0" encoding="utf-8"?>
<svg xmlns="http://www.w3.org/2000/svg" xmlns:xlink="http://www.w3.org/1999/xlink">

    <symbol viewBox="0 0 16 16" fill="currentColor" id="mail" xmlns="http://www.w3.org/2000/svg">
        <path fill-rule="evenodd" d="M.05 3.555A2 2 0 0 1 2 2h12a2 2 0 0 1 1.95 1.555L8 8.414.05 3.555zM0 4.697v7.104l5.803-3.558L0 4.697zM6.761 8.83l-6.57 4.027A2 2 0 0 0 2 14h12a2 2 0 0 0 1.808-1.144l-6.57-4.027L8 9.586l-1.239-.757zm3.436-.586L16 11.801V4.697l-5.803 3.546z"/>
    </symbol>

    <symbol viewBox="0 0 24 24" fill="currentColor" id="twitter" xmlns="http://www.w3.org/2000/svg">
        <path d="M24 4.557c-.883.392-1.832.656-2.828.775 1.017-.609 1.798-1.574 2.165-2.724-.951.564-2.005.974-3.127 1.195-.897-.957-2.178-1.555-3.594-1.555-3.179 0-5.515 2.966-4.797 6.045-4.091-.205-7.719-2.165-10.148-5.144-1.29 2.213-.669 5.108 1.523 6.574-.806-.026-1.566-.247-2.229-.616-.054 2.281 1.581 4.415 3.949 4.89-.693.188-1.452.232-2.224.084.626 1.956 2.444 3.379 4.6 3.419-2.07 1.623-4.678 2.348-7.29 2.04 2.179 1.397 4.768 2.212 7.548 2.212 9.142 0 14.307-7.721 13.995-14.646.962-.695 1.797-1.562 2.457-2.549z"></path>
    </symbol>

    <symbol viewBox="0 0 266.893 266.895" fill="currentColor" id="facebook" xmlns="http://www.w3.org/2000/svg">
        <path fill-rule="evenodd" d="M248.082,262.307c7.854,0,14.223-6.369,14.223-14.225V18.812 c0-7.857-6.368-14.224-14.223-14.224H18.812c-7.857,0-14.224,6.367-14.224,14.224v229.27c0,7.855,6.366,14.225,14.224,14.225 H248.082z"/>
        <path fill="white" d="M182.409,262.307v-99.803h33.499l5.016-38.895h-38.515V98.777c0-11.261,3.127-18.935,19.275-18.935 l20.596-0.009V45.045c-3.562-0.474-15.788-1.533-30.012-1.533c-29.695,0-50.025,18.126-50.025,51.413v28.684h-33.585v38.895h33.585 v99.803H182.409z"/>
    </symbol>

    <symbol viewBox="0 0 90 90" fill="currentColor" id="whatsapp" xmlns="http://www.w3.org/2000/svg">
        <path d="M90,43.841c0,24.213-19.779,43.841-44.182,43.841c-7.747,0-15.025-1.98-21.357-5.455L0,90l7.975-23.522
            c-4.023-6.606-6.34-14.354-6.34-22.637C1.635,19.628,21.416,0,45.818,0C70.223,0,90,19.628,90,43.841z M45.818,6.982
            c-20.484,0-37.146,16.535-37.146,36.859c0,8.065,2.629,15.534,7.076,21.61L11.107,79.14l14.275-4.537
            c5.865,3.851,12.891,6.097,20.437,6.097c20.481,0,37.146-16.533,37.146-36.857S66.301,6.982,45.818,6.982z M68.129,53.938
            c-0.273-0.447-0.994-0.717-2.076-1.254c-1.084-0.537-6.41-3.138-7.4-3.495c-0.993-0.358-1.717-0.538-2.438,0.537
            c-0.721,1.076-2.797,3.495-3.43,4.212c-0.632,0.719-1.263,0.809-2.347,0.271c-1.082-0.537-4.571-1.673-8.708-5.333
            c-3.219-2.848-5.393-6.364-6.025-7.441c-0.631-1.075-0.066-1.656,0.475-2.191c0.488-0.482,1.084-1.255,1.625-1.882
            c0.543-0.628,0.723-1.075,1.082-1.793c0.363-0.717,0.182-1.344-0.09-1.883c-0.27-0.537-2.438-5.825-3.34-7.977
            c-0.902-2.15-1.803-1.792-2.436-1.792c-0.631,0-1.354-0.09-2.076-0.09c-0.722,0-1.896,0.269-2.889,1.344
            c-0.992,1.076-3.789,3.676-3.789,8.963c0,5.288,3.879,10.397,4.422,11.113c0.541,0.716,7.49,11.92,18.5,16.223
            C58.2,65.771,58.2,64.336,60.186,64.156c1.984-0.179,6.406-2.599,7.312-5.107C68.398,56.537,68.398,54.386,68.129,53.938z"/>
    </symbol>

    <symbol viewBox="0 0 32 32" fill="currentColor" id="reddit" xmlns="http://www.w3.org/2000/svg">
        <path fill-rule="evenodd" d="M12.594 19.094c-0.863 0-1.556-0.694-1.556-1.538 0-0.862 0.694-1.556 1.556-1.556 0.85 0 1.538 0.694 1.538 1.556 0 0.85-0.694 1.538-1.538 1.538zM31.5 16c0 8.563-6.938 15.5-15.5 15.5s-15.5-6.938-15.5-15.5c0-8.563 6.938-15.5 15.5-15.5s15.5 6.938 15.5 15.5zM23.231 13.425c-0.587 0-1.106 0.244-1.488 0.625-1.4-0.969-3.287-1.594-5.381-1.663l1.087-4.894 3.463 0.781c0 0.85 0.694 1.538 1.537 1.538 0.863 0 1.556-0.706 1.556-1.556s-0.694-1.556-1.556-1.556c-0.606 0-1.125 0.363-1.381 0.863l-3.825-0.85c-0.188-0.050-0.381 0.088-0.431 0.275l-1.194 5.4c-2.075 0.088-3.944 0.706-5.344 1.675-0.381-0.4-0.919-0.637-1.506-0.637-2.181 0-2.894 2.931-0.9 3.925-0.069 0.313-0.106 0.637-0.106 0.969 0 3.287 3.7 5.95 8.25 5.95 4.569 0 8.269-2.663 8.269-5.95 0-0.331-0.038-0.675-0.119-0.988 1.956-1 1.237-3.906-0.931-3.906zM18.925 20.688c-1.137 1.137-4.756 1.119-5.85 0-0.137-0.137-0.381-0.137-0.519 0-0.156 0.156-0.156 0.4 0 0.538 1.425 1.425 5.456 1.425 6.888 0 0.156-0.138 0.156-0.381 0-0.538-0.138-0.137-0.381-0.137-0.519 0zM19.406 16c-0.85 0-1.538 0.694-1.538 1.556 0 0.85 0.694 1.538 1.538 1.538 0.863 0 1.556-0.694 1.556-1.538 0-0.862-0.688-1.556-1.556-1.556z"/>
    </symbol>

    <symbol viewBox="0 0 438.536 438.536" fill="currentColor" id="linkedin" xmlns="http://www.w3.org/2000/svg">
        <path fill-rule="evenodd" d="M414.41,24.123C398.333,8.042,378.963,0,356.315,0H82.228C59.58,0,40.21,8.042,24.126,24.123
            C8.045,40.207,0.003,59.576,0.003,82.225v274.084c0,22.647,8.042,42.018,24.123,58.102c16.084,16.084,35.454,24.126,58.102,24.126
            h274.084c22.648,0,42.018-8.042,58.095-24.126c16.084-16.084,24.126-35.454,24.126-58.102V82.225
            C438.532,59.576,430.49,40.204,414.41,24.123z M133.618,367.157H67.666V169.016h65.952V367.157z M127.626,132.332
            c-6.851,6.567-15.893,9.851-27.124,9.851h-0.288c-10.848,0-19.648-3.284-26.407-9.851c-6.76-6.567-10.138-14.703-10.138-24.41
            c0-9.897,3.476-18.083,10.421-24.556c6.95-6.471,15.942-9.708,26.98-9.708c11.039,0,19.89,3.237,26.553,9.708
            c6.661,6.473,10.088,14.659,10.277,24.556C137.899,117.625,134.477,125.761,127.626,132.332z M370.873,367.157h-65.952v-105.92
            c0-29.879-11.036-44.823-33.116-44.823c-8.374,0-15.42,2.331-21.128,6.995c-5.715,4.661-9.996,10.324-12.847,16.991
            c-1.335,3.422-1.999,8.75-1.999,15.981v110.775h-65.952c0.571-119.529,0.571-185.579,0-198.142h65.952v27.974
            c13.867-21.681,33.558-32.544,59.101-32.544c22.84,0,41.21,7.52,55.104,22.554c13.895,15.037,20.841,37.214,20.841,66.519v113.64
            H370.873z"/>
    </symbol>

</svg>
