<?xml version="1.0" encoding="UTF-8"?>
<svg xmlns="http://www.w3.org/2000/svg" fill="#eee40a" width="69" height="69" viewBox="0 0 85 85">
<path d="m3.35897,43.16499l3.334,0c0.524,18.893 15.788,34.157 34.681,34.681l0,3.319c0,0.552 0.448,1 1,1s1,-0.448 1,-1l0,-3.319c18.893,-0.524 34.157,-15.788 34.681,-34.681l3.334,0c0.552,0 1,-0.448 1,-1s-0.448,-1 -1,-1l-3.334,0c-0.524,-18.893 -15.788,-34.157 -34.681,-34.681l0,-3.319c0,-0.552 -0.448,-1 -1,-1s-1,0.448 -1,1l0,3.319c-18.892,0.524 -34.156,15.788 -34.68,34.681l-3.334,0c-0.552,0 -1,0.448 -1,1s0.447,1 0.999,1zm5.335,0l17.204,0c0.501,8.314 7.163,14.976 15.477,15.477l0,17.204c-17.791,-0.522 -32.159,-14.89 -32.681,-32.681zm34.681,0l13.477,0c-0.495,7.212 -6.265,12.982 -13.477,13.477l0,-13.477zm0,-2l0,-13.478c7.212,0.495 12.982,6.265 13.477,13.478l-13.477,0zm-2,0l-13.477,0c0.495,-7.212 6.265,-12.983 13.477,-13.478l0,13.478zm0,2l0,13.477c-7.212,-0.495 -12.982,-6.265 -13.477,-13.477l13.477,0zm2,32.681l0,-17.204c8.314,-0.501 14.976,-7.163 15.477,-15.477l17.204,0c-0.522,17.791 -14.89,32.159 -32.681,32.681zm32.681,-34.681l-17.204,0c-0.501,-8.315 -7.163,-14.976 -15.477,-15.478l0,-17.203c17.791,0.522 32.159,14.89 32.681,32.681zm-34.681,-32.681l0,17.203c-8.314,0.501 -14.976,7.163 -15.477,15.478l-17.204,0c0.522,-17.791 14.89,-32.159 32.681,-32.681z"/>
<path d="m34.28585,13.37804c0.166,0.373 0.531,0.594 0.914,0.594c0.136,0 0.274,-0.028 0.406,-0.087c0.504,-0.225 0.731,-0.816 0.507,-1.32l-0.599,-1.344c-0.225,-0.504 -0.814,-0.73 -1.32,-0.507c-0.504,0.225 -0.731,0.816 -0.507,1.32l0.599,1.344z"/>
<path d="m27.52092,17.37402c0.447,-0.325 0.546,-0.95 0.221,-1.397l-0.865,-1.191c-0.325,-0.446 -0.949,-0.546 -1.397,-0.221c-0.447,0.325 -0.546,0.95 -0.221,1.397l0.865,1.191c0.196,0.269 0.5,0.412 0.81,0.412c0.203,0 0.409,-0.062 0.587,-0.191z"/>
<path d="m19.84597,20.43499c-0.41,-0.369 -1.042,-0.336 -1.412,0.074s-0.336,1.042 0.074,1.412l1.094,0.985c0.191,0.172 0.43,0.257 0.668,0.257c0.273,0 0.546,-0.112 0.744,-0.331c0.37,-0.41 0.336,-1.042 -0.074,-1.412l-1.094,-0.985z"/>
<path d="m16.65599,27.84895l-1.274,-0.736c-0.479,-0.277 -1.09,-0.112 -1.366,0.366c-0.276,0.478 -0.112,1.09 0.366,1.366l1.274,0.736c0.157,0.091 0.33,0.134 0.499,0.134c0.346,0 0.682,-0.179 0.867,-0.5c0.276,-0.478 0.112,-1.09 -0.366,-1.366z"/>
<path d="m13.675,35.3129l-1.4,-0.455c-0.527,-0.17 -1.09,0.118 -1.26,0.642c-0.17,0.525 0.117,1.09 0.642,1.26l1.4,0.455c0.103,0.033 0.207,0.049 0.309,0.049c0.422,0 0.814,-0.269 0.951,-0.691c0.171,-0.525 -0.117,-1.09 -0.642,-1.26z"/>
<path d="m14.317,47.63103c-0.171,-0.525 -0.734,-0.812 -1.26,-0.642l-1.4,0.455c-0.525,0.171 -0.812,0.735 -0.642,1.26c0.138,0.423 0.529,0.691 0.951,0.691c0.102,0 0.207,-0.016 0.309,-0.049l1.4,-0.455c0.526,-0.17 0.813,-0.734 0.642,-1.26z"/>
<path d="m15.406,54.74803l-1.274,0.736c-0.479,0.276 -0.642,0.888 -0.366,1.366c0.186,0.321 0.521,0.5 0.867,0.5c0.169,0 0.342,-0.043 0.499,-0.134l1.274,-0.736c0.479,-0.276 0.642,-0.888 0.366,-1.366c-0.276,-0.478 -0.888,-0.643 -1.366,-0.366z"/>
<path d="m20.352,62.17399l-1.094,0.985c-0.411,0.37 -0.444,1.002 -0.074,1.412c0.197,0.22 0.47,0.331 0.744,0.331c0.238,0 0.478,-0.085 0.668,-0.257l1.094,-0.985c0.411,-0.37 0.444,-1.002 0.074,-1.412c-0.369,-0.411 -1.002,-0.443 -1.412,-0.074z"/>
<path d="m27.37393,67.92689l-0.865,1.19c-0.325,0.447 -0.226,1.072 0.221,1.397c0.178,0.129 0.383,0.191 0.587,0.191c0.309,0 0.614,-0.143 0.81,-0.412l0.865,-1.19c0.325,-0.447 0.226,-1.072 -0.221,-1.397c-0.447,-0.324 -1.072,-0.224 -1.397,0.221z"/>
<path d="m36.60582,70.56988c-0.505,-0.225 -1.095,0.002 -1.32,0.507l-0.599,1.345c-0.225,0.504 0.002,1.096 0.507,1.32c0.132,0.059 0.271,0.087 0.406,0.087c0.383,0 0.748,-0.221 0.914,-0.594l0.599,-1.345c0.224,-0.504 -0.003,-1.096 -0.507,-1.32z"/>
<path d="m48.96409,71.07688c-0.225,-0.504 -0.815,-0.731 -1.32,-0.507c-0.504,0.225 -0.731,0.816 -0.507,1.32l0.599,1.345c0.166,0.373 0.531,0.594 0.914,0.594c0.136,0 0.274,-0.028 0.406,-0.087c0.504,-0.225 0.731,-0.816 0.507,-1.32l-0.599,-1.345z"/>
<path d="m56.479,66.8309c-0.447,0.325 -0.546,0.95 -0.221,1.397l0.865,1.19c0.196,0.269 0.5,0.412 0.81,0.412c0.204,0 0.41,-0.062 0.587,-0.191c0.447,-0.325 0.546,-0.95 0.221,-1.397l-0.865,-1.19c-0.324,-0.446 -0.949,-0.546 -1.397,-0.221z"/>
<path d="m64.15394,64.27093c0.191,0.172 0.43,0.257 0.668,0.257c0.273,0 0.546,-0.112 0.744,-0.331c0.37,-0.41 0.336,-1.042 -0.074,-1.412l-1.094,-0.985c-0.41,-0.368 -1.042,-0.335 -1.412,0.074c-0.37,0.41 -0.336,1.042 0.074,1.412l1.094,0.985z"/>
<path d="m67.84392,57.22996l1.274,0.736c0.157,0.091 0.33,0.134 0.499,0.134c0.346,0 0.682,-0.179 0.867,-0.5c0.276,-0.478 0.112,-1.09 -0.366,-1.366l-1.274,-0.736c-0.479,-0.277 -1.09,-0.112 -1.366,0.366c-0.276,0.478 -0.112,1.09 0.366,1.366z"/>
<path d="m71.57489,48.14205l1.4,0.455c0.103,0.033 0.207,0.049 0.309,0.049c0.422,0 0.813,-0.269 0.951,-0.691c0.17,-0.525 -0.117,-1.089 -0.642,-1.26l-1.4,-0.455c-0.526,-0.169 -1.089,0.118 -1.26,0.642c-0.171,0.525 0.116,1.089 0.642,1.26z"/>
<path d="m70.4329,37.19788c0.137,0.422 0.529,0.691 0.951,0.691c0.102,0 0.206,-0.016 0.309,-0.049l1.4,-0.455c0.525,-0.17 0.812,-0.735 0.642,-1.26c-0.17,-0.524 -0.731,-0.812 -1.26,-0.642l-1.4,0.455c-0.525,0.17 -0.813,0.735 -0.642,1.26z"/>
<path d="m68.59491,29.96494c0.169,0 0.342,-0.043 0.499,-0.134l1.274,-0.736c0.479,-0.276 0.642,-0.888 0.366,-1.366c-0.276,-0.479 -0.889,-0.643 -1.366,-0.366l-1.274,0.736c-0.479,0.276 -0.642,0.888 -0.366,1.366c0.186,0.321 0.522,0.5 0.867,0.5z"/>
<path d="m64.10494,23.16299c0.238,0 0.478,-0.085 0.668,-0.257l1.094,-0.985c0.411,-0.37 0.444,-1.002 0.074,-1.412c-0.369,-0.411 -1.002,-0.443 -1.412,-0.074l-1.094,0.985c-0.411,0.37 -0.444,1.002 -0.074,1.412c0.198,0.219 0.47,0.331 0.744,0.331z"/>
<path d="m57.56598,17.81502c0.31,0 0.614,-0.143 0.81,-0.412l0.865,-1.191c0.325,-0.447 0.226,-1.072 -0.221,-1.397c-0.448,-0.325 -1.072,-0.225 -1.397,0.221l-0.865,1.191c-0.325,0.447 -0.226,1.072 0.221,1.397c0.178,0.129 0.384,0.191 0.587,0.191z"/>
<path d="m49.51904,14.51002c0.132,0.059 0.27,0.087 0.406,0.087c0.383,0 0.748,-0.221 0.914,-0.594l0.599,-1.344c0.225,-0.504 -0.002,-1.096 -0.507,-1.32c-0.504,-0.222 -1.095,0.001 -1.32,0.507l-0.599,1.344c-0.224,0.504 0.003,1.095 0.507,1.32z"/>
</svg>
